<svg width="1280" height="647" fill="none" xmlns="http://www.w3.org/2000/svg"><g clip-path="url(#a)"><g filter="url(#b)"><path d="M646.877 67.843a4.5 4.5 0 0 0 6.364 6.364L717.587 9.86a4.5 4.5 0 0 0-6.364-6.364l-64.346 64.347Z" fill="url(#c)"/><path d="M663.14 83.4a4.5 4.5 0 0 1 0-6.365l73.539-73.539a4.5 4.5 0 0 1 6.364 6.364L669.504 83.4a4.5 4.5 0 0 1-6.364 0Z" fill="url(#d)"/><path d="M3.41 76.328a4.5 4.5 0 0 0 6.363 6.364L82.606 9.86a4.5 4.5 0 0 0-6.364-6.364L3.41 76.328Z" fill="url(#e)"/><path d="M133.517 3.496a4.5 4.5 0 0 0-6.364 0L3.41 127.24a4.5 4.5 0 0 0 6.363 6.364L133.517 9.86a4.5 4.5 0 0 0 0-6.364Z" fill="url(#f)"/><path d="M45.836 8.446A4.5 4.5 0 0 0 52.2 14.81l4.95-4.95a4.5 4.5 0 1 0-6.364-6.364l-4.95 4.95Z" fill="url(#g)"/><path d="M25.33 3.496a4.5 4.5 0 0 1 6.364 6.364L9.774 31.78a4.5 4.5 0 1 1-6.364-6.363l21.92-21.92Z" fill="url(#h)"/><path d="M3.41 178.152a4.5 4.5 0 0 0 6.363 6.364L119.375 74.914a4.5 4.5 0 0 0-6.364-6.364L3.409 178.152Z" fill="url(#i)"/><path d="M3.41 108.148a4.5 4.5 0 0 1 0-6.364l12.727-12.728a4.5 4.5 0 1 1 6.364 6.364L9.773 108.148a4.5 4.5 0 0 1-6.363 0Z" fill="url(#j)"/><path d="M108.061 3.496a4.5 4.5 0 0 0-6.364 0L28.865 76.328a4.5 4.5 0 1 0 6.364 6.364L108.061 9.86a4.499 4.499 0 0 0 0-6.364Z" fill="url(#k)"/><path d="M120.082 36.023a4.5 4.5 0 0 0 6.364 6.364L158.973 9.86a4.5 4.5 0 0 0-6.364-6.364l-32.527 32.527Z" fill="url(#l)"/><path d="M3.41 57.236a4.5 4.5 0 0 1 0-6.364l29.698-29.698a4.5 4.5 0 1 1 6.364 6.364L9.773 57.236a4.5 4.5 0 0 1-6.363 0Z" fill="url(#m)"/><path d="M184.429 3.496a4.5 4.5 0 0 1 0 6.364l-22.628 22.628a4.5 4.5 0 1 1-6.364-6.364l22.628-22.628a4.5 4.5 0 0 1 6.364 0Z" fill="url(#n)"/><path d="M125.739 62.186a4.5 4.5 0 0 1 0-6.364l16.971-16.97a4.499 4.499 0 0 1 6.363 0 4.499 4.499 0 0 1 0 6.364l-16.97 16.97a4.5 4.5 0 0 1-6.364 0Z" fill="url(#o)"/><path d="M65.635 166.838a4.5 4.5 0 0 1 6.364 6.364L9.773 235.427a4.5 4.5 0 0 1-6.364-6.364l62.226-62.225Z" fill="url(#p)"/><path d="M3.41 286.339a4.5 4.5 0 0 1 0-6.364L264.331 19.053a4.5 4.5 0 0 1 6.364 6.364L9.773 286.339a4.5 4.5 0 0 1-6.364 0Z" fill="url(#q)"/><path d="M279.888 3.496a4.5 4.5 0 0 1 6.364 6.364l-2.828 2.829a4.5 4.5 0 0 1-6.364-6.364l2.828-2.829Z" fill="url(#r)"/><path d="M3.41 260.883a4.5 4.5 0 0 1 0-6.364L45.128 212.8a4.5 4.5 0 0 1 6.364 6.364l-41.72 41.719a4.499 4.499 0 0 1-6.364 0Z" fill="url(#s)"/><path d="M189.379 68.55a4.5 4.5 0 1 1 6.364 6.364L64.221 206.436a4.5 4.5 0 0 1-6.364-6.364L189.379 68.55Z" fill="url(#t)"/><path d="M235.34 3.496a4.499 4.499 0 0 0-6.363 0L154.73 77.743a4.5 4.5 0 0 0 6.364 6.363L235.34 9.86a4.499 4.499 0 0 0 0-6.364Z" fill="url(#u)"/><path d="M202.106 55.822a4.5 4.5 0 0 0 6.364 6.364L260.796 9.86a4.5 4.5 0 0 0-6.364-6.364l-52.326 52.326Z" fill="url(#v)"/><path d="M295.445 70.671a4.499 4.499 0 0 1 0-6.364l60.811-60.81a4.5 4.5 0 0 1 6.364 6.363l-60.811 60.811a4.5 4.5 0 0 1-6.364 0Z" fill="url(#w)"/><path d="M3.41 381.798a4.5 4.5 0 0 0 6.363 6.364L388.076 9.86a4.5 4.5 0 0 0-6.364-6.364L3.409 381.798Z" fill="url(#x)"/><path d="M424.138 18.346a4.5 4.5 0 0 0-6.364 0L69.17 366.949a4.5 4.5 0 0 0 6.364 6.364L424.138 24.71a4.5 4.5 0 0 0 0-6.364Z" fill="url(#y)"/><path d="M3.41 407.254a4.5 4.5 0 0 0 6.363 6.364L71.292 352.1a4.5 4.5 0 1 0-6.364-6.364L3.409 407.254Z" fill="url(#z)"/><path d="M56.443 309.673a4.499 4.499 0 0 1 0-6.363l19.091-19.092a4.5 4.5 0 1 1 6.364 6.364l-19.092 19.091a4.499 4.499 0 0 1-6.363 0Z" fill="url(#A)"/><path d="M107.354 48.751a4.5 4.5 0 1 1 6.364 6.364L9.773 159.06a4.5 4.5 0 0 1-6.363-6.364L107.354 48.751Z" fill="url(#B)"/><path d="M3.41 362.707a4.5 4.5 0 0 1 0-6.364L17.551 342.2a4.5 4.5 0 0 1 6.364 6.364L9.773 362.707a4.5 4.5 0 0 1-6.364 0Z" fill="url(#C)"/><path d="M52.2 282.096a4.5 4.5 0 0 1 6.364 6.364l-48.79 48.791a4.5 4.5 0 0 1-6.365-6.364l48.79-48.791Z" fill="url(#D)"/><path d="M3.41 311.795a4.5 4.5 0 0 1 0-6.364l19.799-19.799a4.5 4.5 0 0 1 6.363 6.364L9.773 311.795a4.5 4.5 0 0 1-6.364 0Z" fill="url(#E)"/><path d="M438.987 3.496a4.499 4.499 0 0 1 0 6.364l-2.121 2.122a4.5 4.5 0 1 1-6.364-6.364l2.121-2.122a4.5 4.5 0 0 1 6.364 0Z" fill="url(#F)"/><path d="M3.41 439.074a4.5 4.5 0 0 1 0-6.364l53.032-53.033a4.5 4.5 0 0 1 6.364 6.364L9.773 439.074a4.5 4.5 0 0 1-6.364 0Z" fill="url(#G)"/><path d="M30.28 329.473a4.499 4.499 0 1 0 6.364 6.363l13.434-13.435a4.5 4.5 0 1 0-6.363-6.364l-13.436 13.436Z" fill="url(#H)"/><path d="M413.531 3.496a4.5 4.5 0 0 0-6.364 0L332.214 78.45a4.5 4.5 0 0 0 6.364 6.364L413.531 9.86a4.499 4.499 0 0 0 0-6.364Z" fill="url(#I)"/><path d="M23.916 437.66a4.5 4.5 0 1 1 6.364 6.364L9.772 464.53a4.5 4.5 0 0 1-6.364-6.364l20.507-20.506Z" fill="url(#J)"/><path d="M36.644 431.296a4.5 4.5 0 0 1 0-6.364l9.192-9.192a4.499 4.499 0 1 1 6.364 6.363l-9.193 9.193a4.5 4.5 0 0 1-6.363 0Z" fill="url(#K)"/><path d="M58.564 403.012a4.5 4.5 0 0 0 6.364 6.364L464.443 9.86a4.5 4.5 0 0 0-6.364-6.364L58.564 403.012Z" fill="url(#L)"/><path d="M540.811 3.496a4.5 4.5 0 0 0-6.364 0l-63.286 63.286a4.5 4.5 0 0 0 6.364 6.364L540.811 9.86a4.5 4.5 0 0 0 0-6.364Z" fill="url(#M)"/><path d="M521.719 67.136a4.5 4.5 0 1 0 6.364 6.364l63.639-63.64a4.5 4.5 0 0 0-6.364-6.364l-63.639 63.64Z" fill="url(#N)"/><path d="M33.108 638.478a4.5 4.5 0 0 1 0-6.364l26.163-26.163a4.5 4.5 0 0 1 6.364 6.364l-26.163 26.163a4.5 4.5 0 0 1-6.364 0Z" fill="url(#O)"/><path d="M171.347 568.828a4.5 4.5 0 0 1 6.364 6.364l-63.286 63.286a4.5 4.5 0 0 1-6.364-6.364l63.286-63.286Z" fill="url(#P)"/><path d="M680.111 15.517a4.499 4.499 0 0 1 0-6.364l5.657-5.657a4.5 4.5 0 0 1 6.364 6.364l-5.657 5.657a4.5 4.5 0 0 1-6.364 0Z" fill="url(#Q)"/><path d="M157.559 557.161a4.5 4.5 0 0 1 6.364 6.364l-74.954 74.953a4.5 4.5 0 0 1-6.363-6.364l74.953-74.953Z" fill="url(#R)"/><path d="M815.875 13.396a4.5 4.5 0 0 1-6.364-6.364l3.536-3.536a4.5 4.5 0 0 1 6.364 6.364l-3.536 3.536Z" fill="url(#S)"/><path d="M739.508 77.035a4.5 4.5 0 1 0 6.364 6.364l57.275-57.275a4.5 4.5 0 0 0-6.364-6.364l-57.275 57.275Z" fill="url(#T)"/><path d="M184.429 638.478a4.499 4.499 0 0 1 0-6.364l65.761-65.761a4.5 4.5 0 0 1 6.364 6.364l-65.761 65.761a4.499 4.499 0 0 1-6.364 0Z" fill="url(#U)"/><path d="M764.256 77.743a4.5 4.5 0 0 0 6.364 6.363l28.285-28.284a4.5 4.5 0 0 0-6.364-6.364l-28.285 28.285Z" fill="url(#V)"/><path d="M870.322 9.86a4.5 4.5 0 0 0-6.364-6.364L235.34 632.114a4.5 4.5 0 0 0 6.364 6.364L870.322 9.86Z" fill="url(#W)"/><path d="M805.269 36.73a4.5 4.5 0 1 0 6.364 6.364L844.867 9.86a4.5 4.5 0 0 0-6.364-6.364L805.269 36.73Z" fill="url(#X)"/><path d="M3.218 566.544a4.499 4.499 0 0 1 0-6.363l15.748-15.748a4.5 4.5 0 0 1 6.364 6.364L9.582 566.544a4.499 4.499 0 0 1-6.364 0Z" fill="url(#Y)"/><path d="M3.41 591.809a4.5 4.5 0 0 0 6.363 0l41.72-41.719a4.5 4.5 0 1 0-6.364-6.364l-41.72 41.719a4.5 4.5 0 0 0 0 6.364Z" fill="url(#Z)"/><path d="M38.765 537.362a4.5 4.5 0 1 0-6.364-6.364l-.707.707a4.5 4.5 0 1 0 6.364 6.364l.707-.707Z" fill="url(#aa)"/><path d="M475.757 43.094a4.5 4.5 0 0 1 0 6.364l-.707.707a4.5 4.5 0 1 1-6.364-6.364l.707-.707a4.5 4.5 0 0 1 6.364 0Z" fill="url(#ab)"/><path d="M515.355 3.496a4.5 4.5 0 0 0-6.364 0l-26.87 26.87a4.5 4.5 0 0 0 6.364 6.364l26.87-26.87a4.5 4.5 0 0 0 0-6.364Z" fill="url(#ac)"/><path d="M67.403 521.452a4.5 4.5 0 0 1 6.364 6.364l-9.546 9.546a4.5 4.5 0 0 1-6.364-6.364l9.546-9.546Z" fill="url(#ad)"/><path d="M264.332 584.031a4.5 4.5 0 0 1 0-6.364l11.314-11.314a4.5 4.5 0 0 1 6.364 6.364l-11.314 11.314a4.5 4.5 0 0 1-6.364 0Z" fill="url(#ae)"/><path d="M251.604 590.395a4.5 4.5 0 0 1 6.364 6.364l-41.719 41.719a4.499 4.499 0 0 1-6.364 0 4.499 4.499 0 0 1 0-6.364l41.719-41.719Z" fill="url(#af)"/><path d="M3.41 540.897a4.5 4.5 0 0 1 0-6.364l73.539-73.539a4.5 4.5 0 0 1 6.364 6.364l-73.54 73.539a4.499 4.499 0 0 1-6.364 0Z" fill="url(#ag)"/><path d="M661.726 3.496a4.5 4.5 0 0 1 6.364 6.364l-18.385 18.385a4.5 4.5 0 1 1-6.364-6.364l18.385-18.385Z" fill="url(#ah)"/><path d="M209.885 3.496a4.5 4.5 0 0 0-6.364 0L3.409 203.607a4.5 4.5 0 0 0 6.364 6.364L209.885 9.861a4.5 4.5 0 0 0 0-6.365Z" fill="url(#ai)"/><path d="M337.164 3.496a4.5 4.5 0 0 0-6.364 0L64.928 269.368a4.5 4.5 0 1 0 6.364 6.364L337.164 9.86a4.5 4.5 0 0 0 0-6.364Z" fill="url(#aj)"/><path d="M35.936 279.268a4.5 4.5 0 0 1 0-6.364L305.344 3.496a4.5 4.5 0 0 1 6.364 6.364L42.3 279.268a4.5 4.5 0 0 1-6.364 0Z" fill="url(#ak)"/><path d="M3.41 489.986a4.5 4.5 0 0 1 0-6.364L483.534 3.496a4.5 4.5 0 0 1 6.364 6.364L9.773 489.986a4.5 4.5 0 0 1-6.364 0Z" fill="url(#al)"/><path d="M3.41 509.078a4.5 4.5 0 0 0 6.363 6.364L462.322 62.893a4.5 4.5 0 0 0-6.364-6.364L3.409 509.078Z" fill="url(#am)"/><path d="M45.195 518.204a4.5 4.5 0 1 0 6.364 6.364L566.266 9.86a4.499 4.499 0 0 0 0-6.364 4.499 4.499 0 0 0-6.363 0L45.195 518.204Z" fill="url(#an)"/><path d="M9.773 617.265a4.5 4.5 0 0 1-6.364-6.364L610.814 3.496a4.5 4.5 0 0 1 6.364 6.364L9.773 617.265Z" fill="url(#ao)"/><path d="M636.27 3.496a4.5 4.5 0 0 1 6.364 6.364L14.016 638.478a4.5 4.5 0 0 1-6.364-6.364L636.27 3.496Z" fill="url(#ap)"/><path d="M71.999 599.587a4.5 4.5 0 0 1 0-6.364L630.613 34.609a4.5 4.5 0 1 1 6.364 6.364L78.363 599.587a4.499 4.499 0 0 1-6.364 0Z" fill="url(#aq)"/><path d="M57.15 638.478a4.5 4.5 0 0 0 6.364 0L673.747 28.245a4.5 4.5 0 0 0-6.364-6.364L57.15 632.114a4.5 4.5 0 0 0 0 6.364Z" fill="url(#ar)"/><path d="M762.135 3.496a4.5 4.5 0 0 1 6.364 6.364L139.881 638.478a4.5 4.5 0 0 1-6.364-6.364L762.135 3.496Z" fill="url(#as)"/><path d="M793.955 3.496a4.5 4.5 0 0 0-6.364 0L158.973 632.114a4.5 4.5 0 0 0 6.364 6.364L793.955 9.86a4.5 4.5 0 0 0 0-6.364Z" fill="url(#at)"/></g><g filter="url(#au)"><path d="M75 100c0-12.703 10.297-23 23-23h1084c12.7 0 23 10.297 23 23v440c0 12.703-10.3 23-23 23H98c-12.703 0-23-10.297-23-23V100Z" fill="#fff"/></g><g filter="url(#av)"><path d="m1138.97 595.838-8.3-11.814h-8.3l12.64 17.478 3.89-4.721a.818.818 0 0 0 .07-.943Z" fill="#747778"/></g><g filter="url(#aw)"><path d="M1142.89 602.488a.813.813 0 0 0 .04-1.001l-4.11-5.838c.18.296.15.675-.07.943l-13.39 16.249h8.87l8.66-10.353Z" fill="#747778"/></g><g filter="url(#ax)"><path d="m1104.7 606.214 8.3 11.814h8.3l-12.63-17.479-3.89 4.722a.837.837 0 0 0-.08.943Z" fill="#747778"/></g><g filter="url(#ay)"><path d="M1100.83 599.636a.812.812 0 0 0-.04 1l4.1 5.839a.839.839 0 0 1 .08-.944l13.39-16.249h-8.87l-8.66 10.354Z" fill="#747778"/></g><g filter="url(#az)" fill="#747778"><path d="M1143.74 617.353c0 .224-.08.423-.23.595a.75.75 0 0 1-.59.258c-.26 0-.46-.086-.61-.258a.875.875 0 0 1-.22-.595c0-.232.07-.434.22-.606s.35-.258.61-.258c.24 0 .44.086.59.258.15.172.23.374.23.606Z"/><path fill-rule="evenodd" clip-rule="evenodd" d="M1150.88 615.479c0 .396-.06.763-.16 1.099-.1.33-.24.614-.44.853-.19.24-.42.427-.69.562-.28.134-.6.202-.95.202-.27 0-.52-.034-.73-.101a1.609 1.609 0 0 1-.47-.225v2.054h-.93v-6.902c.2-.06.46-.12.77-.18.33-.06.69-.089 1.1-.089.38 0 .72.063 1.03.19.3.127.56.311.78.55.22.232.39.516.51.853.12.337.18.715.18 1.134Zm-.96 0c0-.606-.14-1.074-.42-1.403a1.405 1.405 0 0 0-1.12-.505c-.25 0-.45.011-.6.033-.14.023-.26.049-.34.079v3.288c.11.098.26.187.46.27.2.082.41.123.63.123.25 0 .46-.049.63-.146.18-.097.32-.228.44-.393.11-.172.19-.37.24-.594.06-.232.08-.483.08-.752Z"/><path d="M1152.53 618.071v-4.927a7.042 7.042 0 0 1 2.99-.359c.22.015.46.053.72.112l-.17.82a3.324 3.324 0 0 0-.64-.124 5.293 5.293 0 0 0-1.98.157v4.321h-.92Z"/><path fill-rule="evenodd" clip-rule="evenodd" d="M1162.1 615.467c0 .412-.06.786-.18 1.123-.11.329-.27.613-.48.853-.21.239-.46.426-.75.561-.29.127-.61.191-.96.191-.33 0-.65-.064-.94-.191a2.32 2.32 0 0 1-.74-.561c-.21-.24-.38-.524-.49-.853a3.33 3.33 0 0 1-.17-1.123c0-.411.05-.785.17-1.122.11-.337.28-.621.49-.853.21-.239.46-.423.74-.55.29-.134.61-.202.94-.202.35 0 .67.068.96.202.29.127.54.311.75.55.21.232.37.516.48.853.12.337.18.711.18 1.122Zm-.95 0c0-.591-.13-1.055-.38-1.391a1.23 1.23 0 0 0-1.04-.516c-.42 0-.76.172-1.02.516-.25.336-.37.8-.37 1.391 0 .584.12 1.048.37 1.392.26.337.6.505 1.02.505.44 0 .78-.168 1.04-.505.25-.344.38-.808.38-1.392Z"/><path d="M1166.01 612.056c-.2 0-.37-.068-.51-.202-.14-.135-.21-.318-.21-.55 0-.232.07-.415.21-.55a.707.707 0 0 1 .51-.202c.2 0 .37.067.5.202.14.135.22.318.22.55 0 .232-.08.415-.22.55a.672.672 0 0 1-.5.202Zm-2.18 1.582v-.774h3.03v5.151c0 .359-.05.662-.16.909a1.524 1.524 0 0 1-.98.954c-.22.067-.45.101-.7.101-.28 0-.57-.03-.86-.09-.29-.06-.56-.153-.81-.28l.28-.786c.18.09.39.165.62.224.23.068.45.101.66.101.3 0 .54-.078.74-.235.19-.15.29-.445.29-.887v-4.388h-2.11Z"/><path fill-rule="evenodd" clip-rule="evenodd" d="M1171.07 612.74c.7 0 1.25.221 1.63.662.38.434.57 1.097.57 1.987v.325h-3.73c.04.539.22.951.53 1.235.32.277.77.415 1.35.415.33 0 .61-.026.84-.079.23-.052.41-.108.53-.168l.12.786c-.11.06-.31.123-.61.191-.29.067-.62.101-.98.101-.45 0-.85-.068-1.19-.202a2.358 2.358 0 0 1-.84-.573c-.23-.239-.4-.524-.51-.853a3.479 3.479 0 0 1-.17-1.088c0-.464.07-.868.21-1.212.15-.345.33-.629.57-.853.23-.225.49-.393.78-.505.29-.113.59-.169.9-.169Zm1.26 2.222c0-.441-.12-.789-.35-1.043-.23-.262-.54-.393-.92-.393-.22 0-.42.041-.6.123-.17.083-.32.191-.45.326-.12.134-.22.288-.3.46-.07.172-.12.348-.14.527h2.76Z"/><path d="M1174.33 615.479c0-.472.07-.879.22-1.224a2.36 2.36 0 0 1 1.53-1.346c.35-.113.72-.169 1.12-.169.25 0 .5.019.75.056.26.03.52.09.81.18l-.21.797c-.25-.09-.48-.146-.69-.169a4.35 4.35 0 0 0-.62-.044c-.27 0-.52.037-.76.112-.24.067-.45.179-.63.336-.17.15-.31.348-.41.595-.11.24-.16.531-.16.876 0 .329.05.613.15.853.09.232.23.426.4.583.18.15.39.262.64.337.25.075.52.112.82.112.24 0 .47-.011.68-.034.23-.03.47-.089.73-.179l.14.774c-.26.097-.53.165-.8.202-.27.045-.56.068-.87.068-.42 0-.81-.057-1.16-.169-.35-.12-.64-.292-.9-.516a2.289 2.289 0 0 1-.58-.842c-.14-.344-.2-.74-.2-1.189Zm7.79-2.615h2.2v.774h-2.2v2.424c0 .262.01.475.05.64.04.165.1.299.18.404.09.097.2.165.34.202.13.037.3.056.49.056.27 0 .49-.022.65-.067.17-.045.32-.105.47-.18l.14.786c-.11.045-.27.104-.51.179-.22.075-.5.113-.84.113-.39 0-.71-.045-.95-.135-.25-.09-.44-.225-.59-.404a1.8 1.8 0 0 1-.28-.662c-.05-.27-.08-.58-.08-.932v-2.424h-1.1v-.774h1.1v-1.459l.93-.157v1.616Z"/></g><g filter="url(#aA)" fill="#747778"><path d="M1072.64 590.867v1.768h-4.29v13.863h-2.07v-13.863h-4.3v-1.768h10.66Z"/><path fill-rule="evenodd" clip-rule="evenodd" d="M1079.87 594.503c.87 0 1.6.11 2.19.329.61.218 1.1.521 1.47.909.37.387.63.858.78 1.414.15.555.23 1.161.23 1.818v7.323c-.49.084-1.14.185-1.95.303-.79.117-1.6.176-2.45.176-.64 0-1.26-.059-1.86-.176a4.818 4.818 0 0 1-1.62-.556 3.32 3.32 0 0 1-1.14-1.161c-.28-.489-.43-1.111-.43-1.869 0-.673.15-1.237.43-1.692.31-.471.68-.85 1.14-1.136.47-.286 1-.488 1.59-.606a8.355 8.355 0 0 1 1.82-.202c.82 0 1.63.092 2.42.278v-.581c0-.354-.04-.69-.12-1.01-.07-.337-.21-.64-.43-.909-.2-.27-.49-.48-.86-.632-.36-.168-.82-.252-1.39-.252-.72 0-1.36.05-1.89.151-.54.101-.96.202-1.24.303l-.25-1.717c.28-.134.75-.252 1.41-.353.67-.101 1.39-.152 2.15-.152Zm.2 10.505c.52 0 .98-.017 1.39-.051.42-.033.76-.075 1.03-.126v-3.485a5.872 5.872 0 0 0-.98-.202c-.37-.05-.77-.075-1.19-.075-.39 0-.77.033-1.14.101-.37.05-.69.151-.98.303-.29.151-.52.353-.71.606-.18.235-.28.538-.28.909 0 .757.26 1.288.76 1.591.52.286 1.22.429 2.1.429Zm14.92.404c-.23.135-.59.278-1.08.429-.49.152-1.05.227-1.69.227-.69 0-1.34-.109-1.95-.328a4.558 4.558 0 0 1-1.56-1.035 5.19 5.19 0 0 1-1.06-1.768c-.26-.724-.38-1.574-.38-2.55 0-.859.11-1.641.35-2.349.25-.723.61-1.346 1.06-1.868a4.76 4.76 0 0 1 1.72-1.212c.67-.303 1.44-.455 2.3-.455 1.01 0 1.87.076 2.57.228.73.134 1.33.269 1.82.404v10.454c0 1.818-.46 3.131-1.39 3.939-.91.808-2.29 1.212-4.14 1.212-.76 0-1.45-.059-2.07-.177-.61-.118-1.15-.261-1.62-.429l.38-1.844c.44.186.94.337 1.49.455.57.118 1.2.177 1.87.177 1.21 0 2.08-.244 2.6-.733.52-.488.78-1.279.78-2.373v-.404Zm0-8.788c-.2-.067-.48-.126-.83-.176-.35-.068-.83-.101-1.44-.101-1.08 0-1.9.37-2.47 1.111-.56.74-.84 1.725-.84 2.954 0 .673.08 1.254.23 1.742.17.472.39.867.66 1.187.28.303.6.531.96.682.35.135.73.202 1.13.202.53 0 1.01-.076 1.47-.227.47-.152.85-.329 1.13-.531v-6.843Z"/></g></g><path d="M334 448.032v47.232h5.4v-25.992c0-2.112-.096-4.44-.288-6.984a499.09 499.09 0 0 0-.432-6.984h.288l3.744 10.728 8.928 24.48h3.96l8.928-24.48 3.744-10.728h.288c-.144 2.064-.312 4.392-.504 6.984a93.404 93.404 0 0 0-.288 6.984v25.992h5.616v-47.232h-7.272l-8.928 25.2a150.565 150.565 0 0 0-1.656 4.968 96.652 96.652 0 0 1-1.584 4.896h-.288l-1.728-4.896c-.528-1.68-1.08-3.336-1.656-4.968l-9.072-25.2H334Z" fill="#001"/><path fill-rule="evenodd" clip-rule="evenodd" d="M391.352 493.968c2.496 1.44 5.16 2.16 7.992 2.16 2.88 0 5.544-.72 7.992-2.16 2.448-1.44 4.417-3.528 5.904-6.264 1.536-2.736 2.304-6.024 2.304-9.864 0-3.936-.768-7.272-2.304-10.008-1.487-2.736-3.456-4.824-5.904-6.264-2.448-1.44-5.112-2.16-7.992-2.16-2.832 0-5.496.72-7.992 2.16-2.448 1.44-4.44 3.528-5.976 6.264-1.488 2.736-2.231 6.072-2.231 10.008 0 3.84.743 7.128 2.231 9.864 1.536 2.736 3.528 4.824 5.976 6.264Zm15.264-6.408c-1.824 2.448-4.248 3.672-7.272 3.672-2.976 0-5.4-1.224-7.272-3.672-1.871-2.496-2.808-5.736-2.808-9.72 0-4.032.937-7.296 2.808-9.792 1.872-2.496 4.296-3.744 7.272-3.744 3.024 0 5.448 1.248 7.272 3.744 1.872 2.496 2.808 5.76 2.808 9.792 0 3.984-.936 7.224-2.808 9.72Zm28.512 7.416c1.776.768 3.48 1.152 5.112 1.152 2.688 0 5.16-.744 7.416-2.232 2.304-1.488 4.152-3.648 5.544-6.48 1.44-2.832 2.16-6.24 2.16-10.224 0-5.424-1.176-9.744-3.528-12.96-2.352-3.216-5.808-4.824-10.368-4.824-1.92 0-3.84.48-5.76 1.44a23.246 23.246 0 0 0-5.184 3.456l.144-6.336V444h-5.904v51.264h4.752l.504-3.6h.216c1.536 1.392 3.168 2.496 4.896 3.312Zm11.232-7.488c-1.872 2.448-4.248 3.672-7.128 3.672-1.152 0-2.496-.264-4.032-.792-1.488-.576-3-1.536-4.536-2.88v-18.36c1.68-1.536 3.288-2.712 4.824-3.528 1.536-.816 3.048-1.224 4.536-1.224 3.312 0 5.664 1.2 7.056 3.6 1.44 2.352 2.16 5.448 2.16 9.288 0 4.32-.96 7.728-2.88 10.224Z" fill="#001"/><path d="m469.913 476.976-11.448 18.288h6.192l4.752-8.136a94.405 94.405 0 0 1 1.728-3.168 65.158 65.158 0 0 1 1.8-3.096h.288a67.33 67.33 0 0 1 1.944 3.096l1.872 3.168 5.112 8.136h6.408l-11.376-17.64 10.584-17.352h-6.192l-4.248 7.704a77.819 77.819 0 0 0-1.584 2.88 164.831 164.831 0 0 1-1.584 2.952h-.288a60.413 60.413 0 0 1-1.8-2.952 589.063 589.063 0 0 0-1.656-2.88l-4.68-7.704h-6.408l10.584 16.704Zm21.645-2.016v4.536h16.56v-4.536h-16.56Zm28.58 19.296c2.832 1.248 5.904 1.872 9.216 1.872 3.312 0 6.168-.6 8.568-1.8 2.4-1.2 4.248-2.808 5.544-4.824 1.296-2.064 1.944-4.344 1.944-6.84 0-2.352-.432-4.296-1.296-5.832a11.627 11.627 0 0 0-3.528-3.96c-1.44-1.104-3.072-2.04-4.896-2.808l-6.696-2.88a51.183 51.183 0 0 1-3.672-1.728c-1.2-.624-2.208-1.416-3.024-2.376-.768-1.008-1.152-2.256-1.152-3.744 0-2.112.792-3.792 2.376-5.04 1.632-1.248 3.768-1.872 6.408-1.872 2.208 0 4.176.408 5.904 1.224a16.09 16.09 0 0 1 4.824 3.24l3.24-3.888c-1.68-1.728-3.72-3.12-6.12-4.176-2.4-1.104-5.016-1.656-7.848-1.656s-5.376.552-7.632 1.656c-2.256 1.056-4.032 2.544-5.328 4.464-1.248 1.872-1.872 4.008-1.872 6.408 0 2.304.48 4.248 1.44 5.832 1.008 1.584 2.232 2.88 3.672 3.888 1.488 1.008 2.976 1.824 4.464 2.448l6.768 2.952a43.096 43.096 0 0 1 3.96 2.016c1.2.672 2.136 1.488 2.808 2.448.72.96 1.08 2.256 1.08 3.888 0 2.304-.864 4.176-2.592 5.616-1.728 1.392-4.152 2.088-7.272 2.088-2.448 0-4.824-.528-7.128-1.584a20.38 20.38 0 0 1-5.904-4.32l-3.6 4.176c2.064 2.112 4.512 3.816 7.344 5.112Zm35.407-1.368c1.488 2.16 4.104 3.24 7.848 3.24 1.104 0 2.208-.144 3.312-.432a25.104 25.104 0 0 0 3.168-.864l-1.152-4.464-1.944.648a7.85 7.85 0 0 1-2.016.288c-2.016 0-3.432-.576-4.248-1.728-.768-1.2-1.152-2.88-1.152-5.04v-19.44h9.432v-4.824h-9.432v-9.792h-4.968l-.72 9.792-5.472.36v4.464h5.184v19.368c0 3.456.72 6.264 2.16 8.424Z" fill="#001"/><path fill-rule="evenodd" clip-rule="evenodd" d="M575.878 493.536c1.968 1.728 4.416 2.592 7.344 2.592 2.208 0 4.272-.504 6.192-1.512a29.905 29.905 0 0 0 5.4-3.528h.216l.504 4.176h4.896v-21.456c0-4.368-.96-7.848-2.88-10.44-1.92-2.64-5.016-3.96-9.288-3.96-2.784 0-5.376.504-7.776 1.512-2.352.96-4.344 1.968-5.976 3.024l2.304 4.104c1.392-.96 2.976-1.824 4.752-2.592 1.776-.768 3.672-1.152 5.688-1.152 1.92 0 3.384.432 4.392 1.296 1.056.816 1.776 1.896 2.16 3.24.432 1.344.648 2.76.648 4.248-7.44.816-12.888 2.256-16.344 4.32-3.408 2.016-5.112 4.944-5.112 8.784 0 3.12.96 5.568 2.88 7.344Zm13.824-3.384a9.734 9.734 0 0 1-4.752 1.224c-1.728 0-3.192-.432-4.392-1.296-1.2-.912-1.8-2.352-1.8-4.32 0-2.256 1.152-4.104 3.456-5.544 2.352-1.44 6.432-2.52 12.24-3.24v9.72c-1.68 1.488-3.264 2.64-4.752 3.456Z" fill="#001"/><path d="M613.623 492.888c1.488 2.16 4.104 3.24 7.848 3.24 1.104 0 2.208-.144 3.312-.432a25.104 25.104 0 0 0 3.168-.864l-1.152-4.464-1.944.648a7.85 7.85 0 0 1-2.016.288c-2.016 0-3.432-.576-4.248-1.728-.768-1.2-1.152-2.88-1.152-5.04v-19.44h9.432v-4.824h-9.432v-9.792h-4.968l-.72 9.792-5.472.36v4.464h5.184v19.368c0 3.456.72 6.264 2.16 8.424Z" fill="#001"/><path fill-rule="evenodd" clip-rule="evenodd" d="M639.487 493.968c2.544 1.44 5.376 2.16 8.496 2.16 2.4 0 4.536-.36 6.408-1.08 1.92-.72 3.624-1.56 5.112-2.52l-2.088-3.888a21.704 21.704 0 0 1-4.104 2.016c-1.392.48-2.928.72-4.608.72-3.36 0-6.096-1.104-8.208-3.312-2.064-2.208-3.216-5.16-3.456-8.856h23.616a7.03 7.03 0 0 0 .144-1.512c.048-.624.072-1.248.072-1.872 0-4.992-1.224-8.976-3.672-11.952-2.4-2.976-5.832-4.464-10.296-4.464-2.64 0-5.16.744-7.56 2.232-2.4 1.488-4.368 3.6-5.904 6.336-1.488 2.736-2.232 6.024-2.232 9.864 0 3.792.744 7.056 2.232 9.792 1.488 2.736 3.504 4.848 6.048 6.336Zm16.2-19.008h-18.72c.384-3.456 1.536-6.12 3.456-7.992 1.968-1.92 4.176-2.88 6.624-2.88 2.736 0 4.848.936 6.336 2.808 1.536 1.824 2.304 4.512 2.304 8.064Z" fill="#001"/><path d="M667.269 474.96v4.536h16.56v-4.536h-16.56Zm32.304-21.888v42.192h6.048v-42.192h14.256v-5.04h-34.56v5.04h14.256Zm24.929 7.2v34.992h5.904V472.8c1.2-2.976 2.592-5.064 4.176-6.264 1.632-1.2 3.192-1.8 4.68-1.8.72 0 1.32.048 1.8.144.48.096 1.008.24 1.584.432l1.152-5.184c-1.104-.48-2.352-.72-3.744-.72-1.968 0-3.816.648-5.544 1.944-1.728 1.296-3.192 3.048-4.392 5.256h-.216l-.504-6.336h-4.896Z" fill="#001"/><path fill-rule="evenodd" clip-rule="evenodd" d="M754.448 493.968c2.544 1.44 5.376 2.16 8.496 2.16 2.4 0 4.536-.36 6.408-1.08 1.92-.72 3.624-1.56 5.112-2.52l-2.088-3.888a21.704 21.704 0 0 1-4.104 2.016c-1.392.48-2.928.72-4.608.72-3.36 0-6.096-1.104-8.208-3.312-2.064-2.208-3.216-5.16-3.456-8.856h23.616a7.03 7.03 0 0 0 .144-1.512c.048-.624.072-1.248.072-1.872 0-4.992-1.224-8.976-3.672-11.952-2.4-2.976-5.832-4.464-10.296-4.464-2.64 0-5.16.744-7.56 2.232-2.4 1.488-4.368 3.6-5.904 6.336-1.488 2.736-2.232 6.024-2.232 9.864 0 3.792.744 7.056 2.232 9.792 1.488 2.736 3.504 4.848 6.048 6.336Zm16.2-19.008h-18.72c.384-3.456 1.536-6.12 3.456-7.992 1.968-1.92 4.176-2.88 6.624-2.88 2.736 0 4.848.936 6.336 2.808 1.536 1.824 2.304 4.512 2.304 8.064Zm19.519 19.008c2.544 1.44 5.376 2.16 8.496 2.16 2.4 0 4.536-.36 6.408-1.08 1.92-.72 3.624-1.56 5.112-2.52l-2.088-3.888a21.704 21.704 0 0 1-4.104 2.016c-1.392.48-2.928.72-4.608.72-3.36 0-6.096-1.104-8.208-3.312-2.064-2.208-3.216-5.16-3.456-8.856h23.616a7.03 7.03 0 0 0 .144-1.512c.048-.624.072-1.248.072-1.872 0-4.992-1.224-8.976-3.672-11.952-2.4-2.976-5.832-4.464-10.296-4.464-2.64 0-5.16.744-7.56 2.232-2.4 1.488-4.368 3.6-5.904 6.336-1.488 2.736-2.232 6.024-2.232 9.864 0 3.792.744 7.056 2.232 9.792 1.488 2.736 3.504 4.848 6.048 6.336Zm16.2-19.008h-18.72c.384-3.456 1.536-6.12 3.456-7.992 1.968-1.92 4.176-2.88 6.624-2.88 2.736 0 4.848.936 6.336 2.808 1.536 1.824 2.304 4.512 2.304 8.064Z" fill="#001"/><path d="M837.779 492.888c1.488 2.16 4.104 3.24 7.849 3.24 1.104 0 2.207-.144 3.311-.432a25.104 25.104 0 0 0 3.168-.864l-1.151-4.464-1.945.648a7.838 7.838 0 0 1-2.016.288c-2.016 0-3.431-.576-4.248-1.728-.768-1.2-1.152-2.88-1.152-5.04v-19.44h9.432v-4.824h-9.432v-9.792h-4.967l-.721 9.792-5.472.36v4.464h5.185v19.368c0 3.456.719 6.264 2.159 8.424Z" fill="#001"/><path fill-rule="evenodd" clip-rule="evenodd" d="M863.571 493.968c2.496 1.44 5.16 2.16 7.992 2.16 2.88 0 5.544-.72 7.992-2.16 2.448-1.44 4.416-3.528 5.904-6.264 1.536-2.736 2.304-6.024 2.304-9.864 0-3.936-.768-7.272-2.304-10.008-1.488-2.736-3.456-4.824-5.904-6.264-2.448-1.44-5.112-2.16-7.992-2.16-2.832 0-5.496.72-7.992 2.16-2.448 1.44-4.44 3.528-5.976 6.264-1.488 2.736-2.232 6.072-2.232 10.008 0 3.84.744 7.128 2.232 9.864 1.536 2.736 3.528 4.824 5.976 6.264Zm15.264-6.408c-1.824 2.448-4.248 3.672-7.272 3.672-2.976 0-5.4-1.224-7.272-3.672-1.872-2.496-2.808-5.736-2.808-9.72 0-4.032.936-7.296 2.808-9.792 1.872-2.496 4.296-3.744 7.272-3.744 3.024 0 5.448 1.248 7.272 3.744 1.872 2.496 2.808 5.76 2.808 9.792 0 3.984-.936 7.224-2.808 9.72Zm23.76 6.408c2.496 1.44 5.16 2.16 7.992 2.16 2.88 0 5.544-.72 7.992-2.16 2.448-1.44 4.416-3.528 5.904-6.264 1.536-2.736 2.304-6.024 2.304-9.864 0-3.936-.768-7.272-2.304-10.008-1.488-2.736-3.456-4.824-5.904-6.264-2.448-1.44-5.112-2.16-7.992-2.16-2.832 0-5.496.72-7.992 2.16-2.448 1.44-4.44 3.528-5.976 6.264-1.488 2.736-2.232 6.072-2.232 10.008 0 3.84.744 7.128 2.232 9.864 1.536 2.736 3.528 4.824 5.976 6.264Zm15.264-6.408c-1.824 2.448-4.248 3.672-7.272 3.672-2.976 0-5.4-1.224-7.272-3.672-1.872-2.496-2.808-5.736-2.808-9.72 0-4.032.936-7.296 2.808-9.792 1.872-2.496 4.296-3.744 7.272-3.744 3.024 0 5.448 1.248 7.272 3.744 1.872 2.496 2.808 5.76 2.808 9.792 0 3.984-.936 7.224-2.808 9.72Z" fill="#001"/><path d="M937.442 494.112c1.008 1.344 2.616 2.016 4.824 2.016.816 0 1.488-.048 2.016-.144.528-.096.984-.24 1.368-.432l-.792-4.464c-.336.048-.6.096-.792.144h-.504c-.432 0-.816-.192-1.152-.576-.336-.432-.504-1.104-.504-2.016V444h-5.904v44.208c0 2.544.48 4.512 1.44 5.904Zm18.928.648a18.839 18.839 0 0 0 7.128 1.368c2.784 0 5.112-.48 6.984-1.44 1.92-.96 3.36-2.232 4.32-3.816a9.469 9.469 0 0 0 1.512-5.184c0-2.208-.552-3.96-1.656-5.256-1.056-1.344-2.4-2.4-4.032-3.168a50.145 50.145 0 0 0-4.968-2.16 502.929 502.929 0 0 1-3.672-1.512c-1.152-.528-2.088-1.128-2.808-1.8-.72-.72-1.08-1.632-1.08-2.736 0-1.344.504-2.52 1.512-3.528 1.056-1.008 2.688-1.512 4.896-1.512 1.536 0 2.952.288 4.248.864a18.809 18.809 0 0 1 3.744 2.232l2.88-3.744c-1.344-1.104-2.952-2.04-4.824-2.808-1.872-.768-3.888-1.152-6.048-1.152-3.792 0-6.768.96-8.928 2.88-2.112 1.872-3.168 4.224-3.168 7.056 0 1.968.504 3.6 1.512 4.896 1.008 1.248 2.304 2.28 3.888 3.096a60.935 60.935 0 0 0 4.824 2.088 43.804 43.804 0 0 1 3.744 1.584c1.248.528 2.256 1.2 3.024 2.016.816.816 1.224 1.824 1.224 3.024 0 1.488-.576 2.784-1.728 3.888-1.152 1.056-2.88 1.584-5.184 1.584-2.064 0-3.912-.384-5.544-1.152a28.226 28.226 0 0 1-4.752-3.024l-2.952 3.96c1.68 1.344 3.648 2.496 5.904 3.456Z" fill="#001"/><g filter="url(#aB)"><path d="M490 143h67.577v270.307H490v-22.525h45.051V165.526H490V143Z" fill="#001"/></g><g filter="url(#aC)"><path d="M820 413.307h-67.577V143H820v22.526h-45.051v225.256H820v22.525Z" fill="#001"/></g><g filter="url(#aD)"><path d="M651.058 155.389h-27.031v242.15a4.505 4.505 0 0 0 4.505 4.505h18.021a4.505 4.505 0 0 0 4.505-4.505v-242.15Z" fill="#fff"/><path d="M624.127 397.539v-242.05h26.831v242.05a4.405 4.405 0 0 1-4.405 4.405h-18.021a4.405 4.405 0 0 1-4.405-4.405Z" stroke="#747778" stroke-width=".2"/></g><path d="M651.058 161.02h-5.631v.564h5.631v-.564Zm-3.379 4.506h3.379v.337h-3.379v-.337Zm3.379 13.515h-5.631v.563h5.631v-.563Zm-3.379 4.505h3.379v.338h-3.379v-.338Zm3.379 31.536h-5.631v.563h5.631v-.563Zm-5.631 9.01h5.631v.563h-5.631v-.563Zm5.631 117.133h-5.631v.563h5.631v-.563Zm0 4.505h-3.379v.338h3.379v-.338Zm-3.379 9.011h3.379v.338h-3.379v-.338Zm3.379-4.505h-5.631v.563h5.631v-.563Zm-3.379-121.639h3.379v.338h-3.379v-.338Zm3.379-9.01h-3.379v.338h3.379v-.338Zm-3.379-27.031h3.379v.338h-3.379v-.338Zm3.379-4.505h-5.631v.563h5.631v-.563Zm-3.379 13.516h3.379v.337h-3.379v-.337Zm3.379-4.506h-5.631v.564h5.631v-.564Zm-3.379-22.525h3.379v.338h-3.379v-.338Zm3.379-4.505h-5.631v.563h5.631v-.563Zm-3.379 40.546h3.379v.338h-3.379v-.338Zm3.379-4.505h-5.631v.563h5.631v-.563Zm-5.631 72.082h5.631v.563h-5.631v-.563Zm5.631-9.011h-5.631v.563h5.631v-.563Zm-3.379 13.516h3.379v.338h-3.379v-.338Zm3.379-9.011h-3.379v.338h3.379v-.338Zm-3.379-36.04h3.379v.337h-3.379v-.337Zm3.379-4.506h-5.631v.564h5.631v-.564Zm-3.379 13.516h3.379v.338h-3.379v-.338Zm3.379-4.505h-5.631v.563h5.631v-.563Zm-3.379 13.515h3.379v.338h-3.379v-.338Zm3.379-4.505h-5.631v.563h5.631v-.563Zm-3.379 13.515h3.379v.338h-3.379v-.338Zm3.379-4.505h-5.631v.563h5.631v-.563Zm-5.631 72.082h5.631v.563h-5.631v-.563Zm5.631-9.01h-5.631v.563h5.631v-.563Zm-3.379 13.515h3.379v.338h-3.379v-.338Zm3.379-9.01h-3.379v.338h3.379v-.338Zm-3.379-36.041h3.379v.338h-3.379v-.338Zm3.379-4.505h-5.631v.563h5.631v-.563Zm-3.379 13.515h3.379v.338h-3.379v-.338Zm3.379-4.505h-5.631v.563h5.631v-.563Zm-3.379 13.515h3.379v.338h-3.379v-.338Zm3.379-4.505h-5.631v.563h5.631v-.563Zm-3.379 13.516h3.379v.338h-3.379v-.338Zm3.379-4.505h-5.631v.563h5.631v-.563Z" fill="#15202B"/><g filter="url(#aE)" fill="#001"><path d="M651.058 154.263h34.509c.26 0 .513.105.701.285 15.643 15.012 33.542 16.736 40.836 16.748 1.794.003 3.357 1.436 3.357 3.23v2.262h-61.946v-5.631h-17.457v-16.894Zm-1.689 62.508v76.587h10.136v-60.256h26.009c.291 0 .571-.131.763-.35 13.647-15.531 32.944-16.548 40.729-16.25 1.827.07 3.455-1.371 3.455-3.2v-2.725h-61.946v6.194h-19.146Zm-69.267 0h46.178v76.587h-10.7v-68.14h-28.157l-7.321-8.447Zm0-45.614 7.321-8.447h28.157v-8.447h9.01v16.894h-44.488Z"/></g><defs><linearGradient id="c" x1="3.506" y1="2.178" x2="816.433" y2="701.934" gradientUnits="userSpaceOnUse"><stop offset=".059" stop-color="#FF3A75"/><stop offset="1" stop-color="#00D1FF"/></linearGradient><linearGradient id="d" x1="3.506" y1="2.178" x2="816.433" y2="701.934" gradientUnits="userSpaceOnUse"><stop offset=".059" stop-color="#FF3A75"/><stop offset="1" stop-color="#00D1FF"/></linearGradient><linearGradient id="e" x1="3.506" y1="2.178" x2="816.433" y2="701.934" gradientUnits="userSpaceOnUse"><stop offset=".059" stop-color="#FF3A75"/><stop offset="1" stop-color="#00D1FF"/></linearGradient><linearGradient id="f" x1="3.506" y1="2.178" x2="816.433" y2="701.934" gradientUnits="userSpaceOnUse"><stop offset=".059" stop-color="#FF3A75"/><stop offset="1" stop-color="#00D1FF"/></linearGradient><linearGradient id="g" x1="3.506" y1="2.178" x2="816.433" y2="701.934" gradientUnits="userSpaceOnUse"><stop offset=".059" stop-color="#FF3A75"/><stop offset="1" stop-color="#00D1FF"/></linearGradient><linearGradient id="h" x1="3.506" y1="2.178" x2="816.433" y2="701.934" gradientUnits="userSpaceOnUse"><stop offset=".059" stop-color="#FF3A75"/><stop offset="1" stop-color="#00D1FF"/></linearGradient><linearGradient id="i" x1="3.506" y1="2.178" x2="816.433" y2="701.934" gradientUnits="userSpaceOnUse"><stop offset=".059" stop-color="#FF3A75"/><stop offset="1" stop-color="#00D1FF"/></linearGradient><linearGradient id="j" x1="3.506" y1="2.178" x2="816.433" y2="701.934" gradientUnits="userSpaceOnUse"><stop offset=".059" stop-color="#FF3A75"/><stop offset="1" stop-color="#00D1FF"/></linearGradient><linearGradient id="k" x1="3.506" y1="2.178" x2="816.433" y2="701.934" gradientUnits="userSpaceOnUse"><stop offset=".059" stop-color="#FF3A75"/><stop offset="1" stop-color="#00D1FF"/></linearGradient><linearGradient id="l" x1="3.506" y1="2.178" x2="816.433" y2="701.934" gradientUnits="userSpaceOnUse"><stop offset=".059" stop-color="#FF3A75"/><stop offset="1" stop-color="#00D1FF"/></linearGradient><linearGradient id="m" x1="3.506" y1="2.178" x2="816.433" y2="701.934" gradientUnits="userSpaceOnUse"><stop offset=".059" stop-color="#FF3A75"/><stop offset="1" stop-color="#00D1FF"/></linearGradient><linearGradient id="n" x1="3.506" y1="2.178" x2="816.433" y2="701.934" gradientUnits="userSpaceOnUse"><stop offset=".059" stop-color="#FF3A75"/><stop offset="1" stop-color="#00D1FF"/></linearGradient><linearGradient id="o" x1="3.506" y1="2.178" x2="816.433" y2="701.934" gradientUnits="userSpaceOnUse"><stop offset=".059" stop-color="#FF3A75"/><stop offset="1" stop-color="#00D1FF"/></linearGradient><linearGradient id="p" x1="3.506" y1="2.178" x2="816.433" y2="701.934" gradientUnits="userSpaceOnUse"><stop offset=".059" stop-color="#FF3A75"/><stop offset="1" stop-color="#00D1FF"/></linearGradient><linearGradient id="q" x1="3.506" y1="2.178" x2="816.433" y2="701.934" gradientUnits="userSpaceOnUse"><stop offset=".059" stop-color="#FF3A75"/><stop offset="1" stop-color="#00D1FF"/></linearGradient><linearGradient id="r" x1="3.506" y1="2.178" x2="816.433" y2="701.934" gradientUnits="userSpaceOnUse"><stop offset=".059" stop-color="#FF3A75"/><stop offset="1" stop-color="#00D1FF"/></linearGradient><linearGradient id="s" x1="3.506" y1="2.178" x2="816.433" y2="701.934" gradientUnits="userSpaceOnUse"><stop offset=".059" stop-color="#FF3A75"/><stop offset="1" stop-color="#00D1FF"/></linearGradient><linearGradient id="t" x1="3.506" y1="2.178" x2="816.433" y2="701.934" gradientUnits="userSpaceOnUse"><stop offset=".059" stop-color="#FF3A75"/><stop offset="1" stop-color="#00D1FF"/></linearGradient><linearGradient id="u" x1="3.506" y1="2.178" x2="816.433" y2="701.934" gradientUnits="userSpaceOnUse"><stop offset=".059" stop-color="#FF3A75"/><stop offset="1" stop-color="#00D1FF"/></linearGradient><linearGradient id="v" x1="3.506" y1="2.178" x2="816.433" y2="701.934" gradientUnits="userSpaceOnUse"><stop offset=".059" stop-color="#FF3A75"/><stop offset="1" stop-color="#00D1FF"/></linearGradient><linearGradient id="w" x1="3.506" y1="2.178" x2="816.433" y2="701.934" gradientUnits="userSpaceOnUse"><stop offset=".059" stop-color="#FF3A75"/><stop offset="1" stop-color="#00D1FF"/></linearGradient><linearGradient id="x" x1="3.506" y1="2.178" x2="816.433" y2="701.934" gradientUnits="userSpaceOnUse"><stop offset=".059" stop-color="#FF3A75"/><stop offset="1" stop-color="#00D1FF"/></linearGradient><linearGradient id="y" x1="3.506" y1="2.178" x2="816.433" y2="701.934" gradientUnits="userSpaceOnUse"><stop offset=".059" stop-color="#FF3A75"/><stop offset="1" stop-color="#00D1FF"/></linearGradient><linearGradient id="z" x1="3.506" y1="2.178" x2="816.433" y2="701.934" gradientUnits="userSpaceOnUse"><stop offset=".059" stop-color="#FF3A75"/><stop offset="1" stop-color="#00D1FF"/></linearGradient><linearGradient id="A" x1="3.506" y1="2.178" x2="816.433" y2="701.934" gradientUnits="userSpaceOnUse"><stop offset=".059" stop-color="#FF3A75"/><stop offset="1" stop-color="#00D1FF"/></linearGradient><linearGradient id="B" x1="3.506" y1="2.178" x2="816.433" y2="701.934" gradientUnits="userSpaceOnUse"><stop offset=".059" stop-color="#FF3A75"/><stop offset="1" stop-color="#00D1FF"/></linearGradient><linearGradient id="C" x1="3.506" y1="2.178" x2="816.433" y2="701.934" gradientUnits="userSpaceOnUse"><stop offset=".059" stop-color="#FF3A75"/><stop offset="1" stop-color="#00D1FF"/></linearGradient><linearGradient id="D" x1="3.506" y1="2.178" x2="816.433" y2="701.934" gradientUnits="userSpaceOnUse"><stop offset=".059" stop-color="#FF3A75"/><stop offset="1" stop-color="#00D1FF"/></linearGradient><linearGradient id="E" x1="3.506" y1="2.178" x2="816.433" y2="701.934" gradientUnits="userSpaceOnUse"><stop offset=".059" stop-color="#FF3A75"/><stop offset="1" stop-color="#00D1FF"/></linearGradient><linearGradient id="F" x1="3.506" y1="2.178" x2="816.433" y2="701.934" gradientUnits="userSpaceOnUse"><stop offset=".059" stop-color="#FF3A75"/><stop offset="1" stop-color="#00D1FF"/></linearGradient><linearGradient id="G" x1="3.506" y1="2.178" x2="816.433" y2="701.934" gradientUnits="userSpaceOnUse"><stop offset=".059" stop-color="#FF3A75"/><stop offset="1" stop-color="#00D1FF"/></linearGradient><linearGradient id="H" x1="3.506" y1="2.178" x2="816.433" y2="701.934" gradientUnits="userSpaceOnUse"><stop offset=".059" stop-color="#FF3A75"/><stop offset="1" stop-color="#00D1FF"/></linearGradient><linearGradient id="I" x1="3.506" y1="2.178" x2="816.433" y2="701.934" gradientUnits="userSpaceOnUse"><stop offset=".059" stop-color="#FF3A75"/><stop offset="1" stop-color="#00D1FF"/></linearGradient><linearGradient id="J" x1="3.506" y1="2.178" x2="816.433" y2="701.934" gradientUnits="userSpaceOnUse"><stop offset=".059" stop-color="#FF3A75"/><stop offset="1" stop-color="#00D1FF"/></linearGradient><linearGradient id="K" x1="3.506" y1="2.178" x2="816.433" y2="701.934" gradientUnits="userSpaceOnUse"><stop offset=".059" stop-color="#FF3A75"/><stop offset="1" stop-color="#00D1FF"/></linearGradient><linearGradient id="L" x1="3.506" y1="2.178" x2="816.433" y2="701.934" gradientUnits="userSpaceOnUse"><stop offset=".059" stop-color="#FF3A75"/><stop offset="1" stop-color="#00D1FF"/></linearGradient><linearGradient id="M" x1="3.506" y1="2.178" x2="816.433" y2="701.934" gradientUnits="userSpaceOnUse"><stop offset=".059" stop-color="#FF3A75"/><stop offset="1" stop-color="#00D1FF"/></linearGradient><linearGradient id="N" x1="3.506" y1="2.178" x2="816.433" y2="701.934" gradientUnits="userSpaceOnUse"><stop offset=".059" stop-color="#FF3A75"/><stop offset="1" stop-color="#00D1FF"/></linearGradient><linearGradient id="O" x1="3.506" y1="2.178" x2="816.433" y2="701.934" gradientUnits="userSpaceOnUse"><stop offset=".059" stop-color="#FF3A75"/><stop offset="1" stop-color="#00D1FF"/></linearGradient><linearGradient id="P" x1="3.506" y1="2.178" x2="816.433" y2="701.934" gradientUnits="userSpaceOnUse"><stop offset=".059" stop-color="#FF3A75"/><stop offset="1" stop-color="#00D1FF"/></linearGradient><linearGradient id="Q" x1="3.506" y1="2.178" x2="816.433" y2="701.934" gradientUnits="userSpaceOnUse"><stop offset=".059" stop-color="#FF3A75"/><stop offset="1" stop-color="#00D1FF"/></linearGradient><linearGradient id="R" x1="3.506" y1="2.178" x2="816.433" y2="701.934" gradientUnits="userSpaceOnUse"><stop offset=".059" stop-color="#FF3A75"/><stop offset="1" stop-color="#00D1FF"/></linearGradient><linearGradient id="S" x1="3.506" y1="2.178" x2="816.433" y2="701.934" gradientUnits="userSpaceOnUse"><stop offset=".059" stop-color="#FF3A75"/><stop offset="1" stop-color="#00D1FF"/></linearGradient><linearGradient id="T" x1="3.506" y1="2.178" x2="816.433" y2="701.934" gradientUnits="userSpaceOnUse"><stop offset=".059" stop-color="#FF3A75"/><stop offset="1" stop-color="#00D1FF"/></linearGradient><linearGradient id="U" x1="3.506" y1="2.178" x2="816.433" y2="701.934" gradientUnits="userSpaceOnUse"><stop offset=".059" stop-color="#FF3A75"/><stop offset="1" stop-color="#00D1FF"/></linearGradient><linearGradient id="V" x1="3.506" y1="2.178" x2="816.433" y2="701.934" gradientUnits="userSpaceOnUse"><stop offset=".059" stop-color="#FF3A75"/><stop offset="1" stop-color="#00D1FF"/></linearGradient><linearGradient id="W" x1="3.506" y1="2.178" x2="816.433" y2="701.934" gradientUnits="userSpaceOnUse"><stop offset=".059" stop-color="#FF3A75"/><stop offset="1" stop-color="#00D1FF"/></linearGradient><linearGradient id="X" x1="3.506" y1="2.178" x2="816.433" y2="701.934" gradientUnits="userSpaceOnUse"><stop offset=".059" stop-color="#FF3A75"/><stop offset="1" stop-color="#00D1FF"/></linearGradient><linearGradient id="Y" x1="3.506" y1="2.178" x2="816.433" y2="701.934" gradientUnits="userSpaceOnUse"><stop offset=".059" stop-color="#FF3A75"/><stop offset="1" stop-color="#00D1FF"/></linearGradient><linearGradient id="Z" x1="3.506" y1="2.178" x2="816.433" y2="701.934" gradientUnits="userSpaceOnUse"><stop offset=".059" stop-color="#FF3A75"/><stop offset="1" stop-color="#00D1FF"/></linearGradient><linearGradient id="aa" x1="3.506" y1="2.178" x2="816.433" y2="701.934" gradientUnits="userSpaceOnUse"><stop offset=".059" stop-color="#FF3A75"/><stop offset="1" stop-color="#00D1FF"/></linearGradient><linearGradient id="ab" x1="3.506" y1="2.178" x2="816.433" y2="701.934" gradientUnits="userSpaceOnUse"><stop offset=".059" stop-color="#FF3A75"/><stop offset="1" stop-color="#00D1FF"/></linearGradient><linearGradient id="ac" x1="3.506" y1="2.178" x2="816.433" y2="701.934" gradientUnits="userSpaceOnUse"><stop offset=".059" stop-color="#FF3A75"/><stop offset="1" stop-color="#00D1FF"/></linearGradient><linearGradient id="ad" x1="3.506" y1="2.178" x2="816.433" y2="701.934" gradientUnits="userSpaceOnUse"><stop offset=".059" stop-color="#FF3A75"/><stop offset="1" stop-color="#00D1FF"/></linearGradient><linearGradient id="ae" x1="3.506" y1="2.178" x2="816.433" y2="701.934" gradientUnits="userSpaceOnUse"><stop offset=".059" stop-color="#FF3A75"/><stop offset="1" stop-color="#00D1FF"/></linearGradient><linearGradient id="af" x1="3.506" y1="2.178" x2="816.433" y2="701.934" gradientUnits="userSpaceOnUse"><stop offset=".059" stop-color="#FF3A75"/><stop offset="1" stop-color="#00D1FF"/></linearGradient><linearGradient id="ag" x1="3.506" y1="2.178" x2="816.433" y2="701.934" gradientUnits="userSpaceOnUse"><stop offset=".059" stop-color="#FF3A75"/><stop offset="1" stop-color="#00D1FF"/></linearGradient><linearGradient id="ah" x1="3.506" y1="2.178" x2="816.433" y2="701.934" gradientUnits="userSpaceOnUse"><stop offset=".059" stop-color="#FF3A75"/><stop offset="1" stop-color="#00D1FF"/></linearGradient><linearGradient id="ai" x1="3.506" y1="2.178" x2="816.433" y2="701.934" gradientUnits="userSpaceOnUse"><stop offset=".059" stop-color="#FF3A75"/><stop offset="1" stop-color="#00D1FF"/></linearGradient><linearGradient id="aj" x1="3.506" y1="2.178" x2="816.433" y2="701.934" gradientUnits="userSpaceOnUse"><stop offset=".059" stop-color="#FF3A75"/><stop offset="1" stop-color="#00D1FF"/></linearGradient><linearGradient id="ak" x1="3.506" y1="2.178" x2="816.433" y2="701.934" gradientUnits="userSpaceOnUse"><stop offset=".059" stop-color="#FF3A75"/><stop offset="1" stop-color="#00D1FF"/></linearGradient><linearGradient id="al" x1="3.506" y1="2.178" x2="816.433" y2="701.934" gradientUnits="userSpaceOnUse"><stop offset=".059" stop-color="#FF3A75"/><stop offset="1" stop-color="#00D1FF"/></linearGradient><linearGradient id="am" x1="3.506" y1="2.178" x2="816.433" y2="701.934" gradientUnits="userSpaceOnUse"><stop offset=".059" stop-color="#FF3A75"/><stop offset="1" stop-color="#00D1FF"/></linearGradient><linearGradient id="an" x1="3.506" y1="2.178" x2="816.433" y2="701.934" gradientUnits="userSpaceOnUse"><stop offset=".059" stop-color="#FF3A75"/><stop offset="1" stop-color="#00D1FF"/></linearGradient><linearGradient id="ao" x1="3.506" y1="2.178" x2="816.433" y2="701.934" gradientUnits="userSpaceOnUse"><stop offset=".059" stop-color="#FF3A75"/><stop offset="1" stop-color="#00D1FF"/></linearGradient><linearGradient id="ap" x1="3.506" y1="2.178" x2="816.433" y2="701.934" gradientUnits="userSpaceOnUse"><stop offset=".059" stop-color="#FF3A75"/><stop offset="1" stop-color="#00D1FF"/></linearGradient><linearGradient id="aq" x1="3.506" y1="2.178" x2="816.433" y2="701.934" gradientUnits="userSpaceOnUse"><stop offset=".059" stop-color="#FF3A75"/><stop offset="1" stop-color="#00D1FF"/></linearGradient><linearGradient id="ar" x1="3.506" y1="2.178" x2="816.433" y2="701.934" gradientUnits="userSpaceOnUse"><stop offset=".059" stop-color="#FF3A75"/><stop offset="1" stop-color="#00D1FF"/></linearGradient><linearGradient id="as" x1="3.506" y1="2.178" x2="816.433" y2="701.934" gradientUnits="userSpaceOnUse"><stop offset=".059" stop-color="#FF3A75"/><stop offset="1" stop-color="#00D1FF"/></linearGradient><linearGradient id="at" x1="3.506" y1="2.178" x2="816.433" y2="701.934" gradientUnits="userSpaceOnUse"><stop offset=".059" stop-color="#FF3A75"/><stop offset="1" stop-color="#00D1FF"/></linearGradient><filter id="b" x="-.1" y="-1.822" width="877.74" height="649.618" filterUnits="userSpaceOnUse" color-interpolation-filters="sRGB"><feFlood flood-opacity="0" result="BackgroundImageFix"/><feColorMatrix in="SourceAlpha" values="0 0 0 0 0 0 0 0 0 0 0 0 0 0 0 0 0 0 127 0" result="hardAlpha"/><feOffset dx="2" dy="4"/><feGaussianBlur stdDeviation="2"/><feColorMatrix values="0 0 0 0 0.0823529 0 0 0 0 0.12549 0 0 0 0 0.168627 0 0 0 0.4 0"/><feBlend in2="BackgroundImageFix" result="effect1_dropShadow_2_194"/><feBlend in="SourceGraphic" in2="effect1_dropShadow_2_194" result="shape"/><feColorMatrix in="SourceAlpha" values="0 0 0 0 0 0 0 0 0 0 0 0 0 0 0 0 0 0 127 0" result="hardAlpha"/><feOffset dy="-4"/><feGaussianBlur stdDeviation="4"/><feComposite in2="hardAlpha" operator="arithmetic" k2="-1" k3="1"/><feColorMatrix values="0 0 0 0 0.0666667 0 0 0 0 0.0666667 0 0 0 0 0.0666667 0 0 0 0.3 0"/><feBlend in2="shape" result="effect2_innerShadow_2_194"/></filter><filter id="au" x="69" y="73" width="1146" height="502" filterUnits="userSpaceOnUse" color-interpolation-filters="sRGB"><feFlood flood-opacity="0" result="BackgroundImageFix"/><feColorMatrix in="SourceAlpha" values="0 0 0 0 0 0 0 0 0 0 0 0 0 0 0 0 0 0 127 0" result="hardAlpha"/><feOffset dx="2" dy="4"/><feGaussianBlur stdDeviation="4"/><feColorMatrix values="0 0 0 0 0.0823529 0 0 0 0 0.12549 0 0 0 0 0.168627 0 0 0 0.4 0"/><feBlend in2="BackgroundImageFix" result="effect1_dropShadow_2_194"/><feBlend in="SourceGraphic" in2="effect1_dropShadow_2_194" result="shape"/></filter><filter id="av" x="1116.37" y="572.024" width="26.715" height="37.478" filterUnits="userSpaceOnUse" color-interpolation-filters="sRGB"><feFlood flood-opacity="0" result="BackgroundImageFix"/><feColorMatrix in="SourceAlpha" values="0 0 0 0 0 0 0 0 0 0 0 0 0 0 0 0 0 0 127 0" result="hardAlpha"/><feOffset dy="4"/><feGaussianBlur stdDeviation="2"/><feColorMatrix values="0 0 0 0 0 0 0 0 0 0 0 0 0 0 0 0 0 0 0.25 0"/><feBlend in2="BackgroundImageFix" result="effect1_dropShadow_2_194"/><feBlend in="SourceGraphic" in2="effect1_dropShadow_2_194" result="shape"/><feColorMatrix in="SourceAlpha" values="0 0 0 0 0 0 0 0 0 0 0 0 0 0 0 0 0 0 127 0" result="hardAlpha"/><feOffset dx="-6" dy="-12"/><feGaussianBlur stdDeviation="8"/><feComposite in2="hardAlpha" operator="arithmetic" k2="-1" k3="1"/><feColorMatrix values="0 0 0 0 0.0666667 0 0 0 0 0.0666667 0 0 0 0 0.0666667 0 0 0 0.3 0"/><feBlend mode="hard-light" in2="shape" result="effect2_innerShadow_2_194"/></filter><filter id="aw" x="1116.36" y="589.649" width="41.723" height="41.192" filterUnits="userSpaceOnUse" color-interpolation-filters="sRGB"><feFlood flood-opacity="0" result="BackgroundImageFix"/><feColorMatrix in="SourceAlpha" values="0 0 0 0 0 0 0 0 0 0 0 0 0 0 0 0 0 0 127 0" result="hardAlpha"/><feOffset dx="3" dy="6"/><feGaussianBlur stdDeviation="6"/><feColorMatrix values="0 0 0 0 0 0 0 0 0 0 0 0 0 0 0 0 0 0 0.35 0"/><feBlend in2="BackgroundImageFix" result="effect1_dropShadow_2_194"/><feBlend in="SourceGraphic" in2="effect1_dropShadow_2_194" result="shape"/></filter><filter id="ax" x="1100.59" y="600.549" width="26.715" height="29.478" filterUnits="userSpaceOnUse" color-interpolation-filters="sRGB"><feFlood flood-opacity="0" result="BackgroundImageFix"/><feColorMatrix in="SourceAlpha" values="0 0 0 0 0 0 0 0 0 0 0 0 0 0 0 0 0 0 127 0" result="hardAlpha"/><feOffset dy="4"/><feGaussianBlur stdDeviation="2"/><feColorMatrix values="0 0 0 0 0 0 0 0 0 0 0 0 0 0 0 0 0 0 0.25 0"/><feBlend in2="BackgroundImageFix" result="effect1_dropShadow_2_194"/><feBlend in="SourceGraphic" in2="effect1_dropShadow_2_194" result="shape"/><feColorMatrix in="SourceAlpha" values="0 0 0 0 0 0 0 0 0 0 0 0 0 0 0 0 0 0 127 0" result="hardAlpha"/><feOffset dx="6" dy="12"/><feGaussianBlur stdDeviation="8"/><feComposite in2="hardAlpha" operator="arithmetic" k2="-1" k3="1"/><feColorMatrix values="0 0 0 0 0.0666667 0 0 0 0 0.0666667 0 0 0 0 0.0666667 0 0 0 0.3 0"/><feBlend mode="hard-light" in2="shape" result="effect2_innerShadow_2_194"/></filter><filter id="ay" x="1091.64" y="583.282" width="41.723" height="41.192" filterUnits="userSpaceOnUse" color-interpolation-filters="sRGB"><feFlood flood-opacity="0" result="BackgroundImageFix"/><feColorMatrix in="SourceAlpha" values="0 0 0 0 0 0 0 0 0 0 0 0 0 0 0 0 0 0 127 0" result="hardAlpha"/><feOffset dx="3" dy="6"/><feGaussianBlur stdDeviation="6"/><feColorMatrix values="0 0 0 0 0 0 0 0 0 0 0 0 0 0 0 0 0 0 0.35 0"/><feBlend in2="BackgroundImageFix" result="effect1_dropShadow_2_194"/><feBlend in="SourceGraphic" in2="effect1_dropShadow_2_194" result="shape"/></filter><filter id="az" x="1133.09" y="604.552" width="66.352" height="33.427" filterUnits="userSpaceOnUse" color-interpolation-filters="sRGB"><feFlood flood-opacity="0" result="BackgroundImageFix"/><feColorMatrix in="SourceAlpha" values="0 0 0 0 0 0 0 0 0 0 0 0 0 0 0 0 0 0 127 0" result="hardAlpha"/><feOffset dx="3" dy="6"/><feGaussianBlur stdDeviation="6"/><feColorMatrix values="0 0 0 0 0 0 0 0 0 0 0 0 0 0 0 0 0 0 0.35 0"/><feBlend in2="BackgroundImageFix" result="effect1_dropShadow_2_194"/><feBlend in="SourceGraphic" in2="effect1_dropShadow_2_194" result="shape"/></filter><filter id="aA" x="1052.98" y="584.867" width="59.106" height="43.873" filterUnits="userSpaceOnUse" color-interpolation-filters="sRGB"><feFlood flood-opacity="0" result="BackgroundImageFix"/><feColorMatrix in="SourceAlpha" values="0 0 0 0 0 0 0 0 0 0 0 0 0 0 0 0 0 0 127 0" result="hardAlpha"/><feOffset dx="3" dy="6"/><feGaussianBlur stdDeviation="6"/><feColorMatrix values="0 0 0 0 0 0 0 0 0 0 0 0 0 0 0 0 0 0 0.35 0"/><feBlend in2="BackgroundImageFix" result="effect1_dropShadow_2_194"/><feBlend in="SourceGraphic" in2="effect1_dropShadow_2_194" result="shape"/></filter><filter id="aB" x="484" y="143" width="75.577" height="278.307" filterUnits="userSpaceOnUse" color-interpolation-filters="sRGB"><feFlood flood-opacity="0" result="BackgroundImageFix"/><feColorMatrix in="SourceAlpha" values="0 0 0 0 0 0 0 0 0 0 0 0 0 0 0 0 0 0 127 0" result="hardAlpha"/><feOffset dx="-2" dy="4"/><feGaussianBlur stdDeviation="2"/><feColorMatrix values="0 0 0 0 0 0 0 0 0 0 0 0 0 0 0 0 0 0 0.68 0"/><feBlend in2="BackgroundImageFix" result="effect1_dropShadow_2_194"/><feBlend in="SourceGraphic" in2="effect1_dropShadow_2_194" result="shape"/></filter><filter id="aC" x="746.423" y="143" width="75.577" height="278.307" filterUnits="userSpaceOnUse" color-interpolation-filters="sRGB"><feFlood flood-opacity="0" result="BackgroundImageFix"/><feColorMatrix in="SourceAlpha" values="0 0 0 0 0 0 0 0 0 0 0 0 0 0 0 0 0 0 127 0" result="hardAlpha"/><feOffset dx="-2" dy="4"/><feGaussianBlur stdDeviation="2"/><feColorMatrix values="0 0 0 0 0 0 0 0 0 0 0 0 0 0 0 0 0 0 0.68 0"/><feBlend in2="BackgroundImageFix" result="effect1_dropShadow_2_194"/><feBlend in="SourceGraphic" in2="effect1_dropShadow_2_194" result="shape"/></filter><filter id="aD" x="618.027" y="155.389" width="35.031" height="254.655" filterUnits="userSpaceOnUse" color-interpolation-filters="sRGB"><feFlood flood-opacity="0" result="BackgroundImageFix"/><feColorMatrix in="SourceAlpha" values="0 0 0 0 0 0 0 0 0 0 0 0 0 0 0 0 0 0 127 0" result="hardAlpha"/><feOffset dx="-2" dy="4"/><feGaussianBlur stdDeviation="2"/><feColorMatrix values="0 0 0 0 0 0 0 0 0 0 0 0 0 0 0 0 0 0 0.68 0"/><feBlend in2="BackgroundImageFix" result="effect1_dropShadow_2_194"/><feBlend in="SourceGraphic" in2="effect1_dropShadow_2_194" result="shape"/></filter><filter id="aE" x="574.102" y="154.263" width="158.358" height="147.096" filterUnits="userSpaceOnUse" color-interpolation-filters="sRGB"><feFlood flood-opacity="0" result="BackgroundImageFix"/><feColorMatrix in="SourceAlpha" values="0 0 0 0 0 0 0 0 0 0 0 0 0 0 0 0 0 0 127 0" result="hardAlpha"/><feOffset dx="-2" dy="4"/><feGaussianBlur stdDeviation="2"/><feColorMatrix values="0 0 0 0 0 0 0 0 0 0 0 0 0 0 0 0 0 0 0.68 0"/><feBlend in2="BackgroundImageFix" result="effect1_dropShadow_2_194"/><feBlend in="SourceGraphic" in2="effect1_dropShadow_2_194" result="shape"/></filter><clipPath id="a"><path fill="#fff" d="M0 0h1280v647H0z"/></clipPath></defs></svg>