<svg width="301" height="248" fill="none" xmlns="http://www.w3.org/2000/svg"><g filter="url(#a)"><path d="M6 0h60v240H6v-20h40V20H6V0Z" fill="#001"/></g><g filter="url(#b)"><path d="M299 240h-60V0h60v20h-40v200h40v20Z" fill="#001"/></g><g filter="url(#c)"><path d="M149 11h-24v215a4 4 0 0 0 4 4h16a4 4 0 0 0 4-4V11Z" fill="#fff"/><path d="M125.1 226V11.1h23.8V226a3.9 3.9 0 0 1-3.9 3.9h-16a3.9 3.9 0 0 1-3.9-3.9Z" stroke="#747778" stroke-width=".2"/></g><path d="M149 16h-5v.5h5V16Zm-3 4h3v.3h-3V20Zm3 12h-5v.5h5V32Zm-3 4h3v.3h-3V36Zm3 28h-5v.5h5V64Zm-5 8h5v.5h-5V72Zm5 104h-5v.5h5v-.5Zm0 4h-3v.3h3v-.3Zm-3 8h3v.3h-3v-.3Zm3-4h-5v.5h5v-.5Zm-3-108h3v.3h-3V76Zm3-8h-3v.3h3V68Zm-3-24h3v.3h-3V44Zm3-4h-5v.5h5V40Zm-3 12h3v.3h-3V52Zm3-4h-5v.5h5V48Zm-3-20h3v.3h-3V28Zm3-4h-5v.5h5V24Zm-3 36h3v.3h-3V60Zm3-4h-5v.5h5V56Zm-5 64h5v.5h-5v-.5Zm5-8h-5v.5h5v-.5Zm-3 12h3v.3h-3v-.3Zm3-8h-3v.3h3v-.3Zm-3-32h3v.3h-3V84Zm3-4h-5v.5h5V80Zm-3 12h3v.3h-3V92Zm3-4h-5v.5h5V88Zm-3 12h3v.3h-3v-.3Zm3-4h-5v.5h5V96Zm-3 12h3v.3h-3v-.3Zm3-4h-5v.5h5v-.5Zm-5 64h5v.5h-5v-.5Zm5-8h-5v.5h5v-.5Zm-3 12h3v.3h-3v-.3Zm3-8h-3v.3h3v-.3Zm-3-32h3v.3h-3v-.3Zm3-4h-5v.5h5v-.5Zm-3 12h3v.3h-3v-.3Zm3-4h-5v.5h5v-.5Zm-3 12h3v.3h-3v-.3Zm3-4h-5v.5h5v-.5Zm-3 12h3v.3h-3v-.3Zm3-4h-5v.5h5v-.5Z" fill="#15202B"/><g filter="url(#d)" fill="#001"><path d="M149 10h30.594c.26 0 .514.105.702.285 13.619 13.05 29.157 14.766 35.849 14.836 1.794.019 3.355 1.454 3.355 3.248V30h-55v-5H149V10Zm-1.5 55.5v68h9V80h23.041c.292 0 .571-.131.763-.35 11.899-13.507 28.614-14.617 35.749-14.402 1.828.055 3.447-1.388 3.447-3.217V60h-55v5.5h-17Zm-61.5 0h41v68h-9.5V73h-25L86 65.5ZM86 25l6.5-7.5h25V10h8v15H86Z"/></g><defs><filter id="a" x="0" y="0" width="68" height="248" filterUnits="userSpaceOnUse" color-interpolation-filters="sRGB"><feFlood flood-opacity="0" result="BackgroundImageFix"/><feColorMatrix in="SourceAlpha" values="0 0 0 0 0 0 0 0 0 0 0 0 0 0 0 0 0 0 127 0" result="hardAlpha"/><feOffset dx="-2" dy="4"/><feGaussianBlur stdDeviation="2"/><feColorMatrix values="0 0 0 0 0 0 0 0 0 0 0 0 0 0 0 0 0 0 0.68 0"/><feBlend in2="BackgroundImageFix" result="effect1_dropShadow_2_185"/><feBlend in="SourceGraphic" in2="effect1_dropShadow_2_185" result="shape"/></filter><filter id="b" x="233" y="0" width="68" height="248" filterUnits="userSpaceOnUse" color-interpolation-filters="sRGB"><feFlood flood-opacity="0" result="BackgroundImageFix"/><feColorMatrix in="SourceAlpha" values="0 0 0 0 0 0 0 0 0 0 0 0 0 0 0 0 0 0 127 0" result="hardAlpha"/><feOffset dx="-2" dy="4"/><feGaussianBlur stdDeviation="2"/><feColorMatrix values="0 0 0 0 0 0 0 0 0 0 0 0 0 0 0 0 0 0 0.68 0"/><feBlend in2="BackgroundImageFix" result="effect1_dropShadow_2_185"/><feBlend in="SourceGraphic" in2="effect1_dropShadow_2_185" result="shape"/></filter><filter id="c" x="119" y="11" width="32" height="227" filterUnits="userSpaceOnUse" color-interpolation-filters="sRGB"><feFlood flood-opacity="0" result="BackgroundImageFix"/><feColorMatrix in="SourceAlpha" values="0 0 0 0 0 0 0 0 0 0 0 0 0 0 0 0 0 0 127 0" result="hardAlpha"/><feOffset dx="-2" dy="4"/><feGaussianBlur stdDeviation="2"/><feColorMatrix values="0 0 0 0 0 0 0 0 0 0 0 0 0 0 0 0 0 0 0.68 0"/><feBlend in2="BackgroundImageFix" result="effect1_dropShadow_2_185"/><feBlend in="SourceGraphic" in2="effect1_dropShadow_2_185" result="shape"/></filter><filter id="d" x="80" y="10" width="141.5" height="131.5" filterUnits="userSpaceOnUse" color-interpolation-filters="sRGB"><feFlood flood-opacity="0" result="BackgroundImageFix"/><feColorMatrix in="SourceAlpha" values="0 0 0 0 0 0 0 0 0 0 0 0 0 0 0 0 0 0 127 0" result="hardAlpha"/><feOffset dx="-2" dy="4"/><feGaussianBlur stdDeviation="2"/><feColorMatrix values="0 0 0 0 0 0 0 0 0 0 0 0 0 0 0 0 0 0 0.68 0"/><feBlend in2="BackgroundImageFix" result="effect1_dropShadow_2_185"/><feBlend in="SourceGraphic" in2="effect1_dropShadow_2_185" result="shape"/></filter></defs></svg>